<svg xmlns="http://www.w3.org/2000/svg" xmlns:xlink="http://www.w3.org/1999/xlink" width="512" height="512" viewBox="0 0 512 512">
  <defs>
    <clipPath id="clip-custom_2">
      <rect width="512" height="512"/>
    </clipPath>
  </defs>
  <g id="custom_2" data-name="custom – 2" clip-path="url(#clip-custom_2)">
    <rect width="512" height="512" fill="#fff"/>
    <g id="noun_tick_848507" transform="translate(13 13)">
      <path id="Path_1" data-name="Path 1" d="M245.456,48C136.409,48,48,136.4,48,245.456s88.409,197.456,197.456,197.456S442.911,354.5,442.911,245.456,354.5,48,245.456,48ZM351.778,161.917Zm0,167.078Zm.949-128.156L231.216,322.349a22.783,22.783,0,0,1-32.276,0L130.59,254a22.823,22.823,0,0,1,32.276-32.276l52.212,52.212L320.451,168.562a22.823,22.823,0,0,1,32.276,32.276Z" transform="translate(-2.433 -2.433)" fill="none"/>
      <path id="Path_2" data-name="Path 2" d="M340.642,168a22.707,22.707,0,0,0-16.138,6.645L219.131,280.018l-44.017-46.351a22.823,22.823,0,0,0-32.276,32.276l60.156,62.489a22.783,22.783,0,0,0,32.276,0L356.781,206.922A22.783,22.783,0,0,0,340.642,168Z" transform="translate(-6.487 -8.517)" fill="#5f5f5f" stroke="#fff" stroke-width="14"/>
      <path id="Path_3" data-name="Path 3" d="M243.022,0C108.809,0,0,108.809,0,243.022S108.809,486.045,243.022,486.045,486.045,377.235,486.045,243.022,377.235,0,243.022,0Zm0,440.478c-109.047,0-197.456-88.409-197.456-197.456S133.976,45.567,243.022,45.567s197.456,88.4,197.456,197.456S352.069,440.478,243.022,440.478Z" fill="#5f5f5f" stroke="#fff" stroke-width="14"/>
    </g>
  </g>
</svg>
